# This file uses centimeters as units for non-parametric coordinates.

mtllib balcony.mtl
g default
v -1.475050 1.390926 3.165366
v -1.359894 1.390926 3.165366
v -1.475050 1.585720 3.165366
v -1.359894 1.585720 3.165366
v -1.475050 1.585720 -3.165366
v -1.359894 1.585720 -3.165366
v -1.475050 1.390926 -3.165366
v -1.359894 1.390926 -3.165366
v -1.475050 0.803651 3.165366
v -1.359894 0.803651 3.165366
v -1.475050 1.019179 3.165366
v -1.359894 1.019179 3.165366
v -1.475050 1.019179 -3.165366
v -1.359894 1.019179 -3.165366
v -1.475050 0.803651 -3.165366
v -1.359894 0.803651 -3.165366
v -1.475050 1.104596 3.165366
v -1.359894 1.104596 3.165366
v -1.475050 1.299390 3.165366
v -1.359894 1.299390 3.165366
v -1.475050 1.299390 -3.165366
v -1.359894 1.299390 -3.165366
v -1.475050 1.104596 -3.165366
v -1.359894 1.104596 -3.165366
v -3.256056 0.367795 3.014341
v -1.477350 0.367795 3.014341
v -3.256056 0.481591 3.014341
v -1.477350 0.481591 3.014341
v -3.256056 0.481591 -3.014341
v -1.477350 0.481591 -3.014341
v -3.256056 0.367795 -3.014341
v -1.477350 0.367795 -3.014341
v -1.475050 0.414525 3.165366
v -1.359894 0.414525 3.165366
v -1.475050 0.733530 3.165366
v -1.359894 0.733530 3.165366
v -1.475050 0.733530 -3.165366
v -1.359894 0.733530 -3.165366
v -1.475050 0.414525 -3.165366
v -1.359894 0.414525 -3.165366
v -3.323778 0.370801 -2.925646
v -1.377681 0.370801 -2.925646
v -3.323778 1.606389 -2.925646
v -1.377681 1.606389 -2.925646
v -3.323778 1.606389 -3.028556
v -1.377681 1.606389 -3.028556
v -3.323778 0.370801 -3.028556
v -1.377681 0.370801 -3.028556
v -3.323778 0.370801 3.092923
v -1.377681 0.370801 3.092923
v -3.323778 1.606389 3.092923
v -1.377681 1.606389 3.092923
v -3.323778 1.606389 2.990013
v -1.377681 1.606389 2.990013
v -3.323778 0.370801 2.990013
v -1.377681 0.370801 2.990013
vt 0.433321 0.502972
vt 0.443678 0.502972
vt 0.433321 0.509887
vt 0.443678 0.509887
vt 0.433321 0.734615
vt 0.443678 0.734615
vt 0.433321 0.741530
vt 0.443678 0.741530
vt 0.433321 0.966258
vt 0.443678 0.966258
vt 0.693471 0.502972
vt 0.693471 0.509887
vt 0.233659 0.502972
vt 0.233659 0.509887
vt 0.222741 0.462919
vt 0.233097 0.462919
vt 0.233097 0.470570
vt 0.222741 0.470570
vt 0.233097 0.695299
vt 0.222741 0.695299
vt 0.233097 0.702950
vt 0.222741 0.702950
vt 0.233097 0.927678
vt 0.222741 0.927678
vt 0.484730 0.462919
vt 0.484730 0.470570
vt 0.024917 0.462919
vt 0.024917 0.470570
vt 0.643694 0.509887
vt 0.654050 0.509887
vt 0.654050 0.516801
vt 0.643694 0.516801
vt 0.654050 0.741529
vt 0.643694 0.741529
vt 0.654050 0.748444
vt 0.643694 0.748444
vt 0.654050 0.973172
vt 0.643694 0.973172
vt 0.903844 0.509887
vt 0.903844 0.516801
vt 0.444032 0.509887
vt 0.444032 0.516801
vt 0.256815 0.026828
vt 0.416779 0.026828
vt 0.416779 0.030867
vt 0.256815 0.030867
vt 0.416779 0.244874
vt 0.256815 0.244874
vt 0.416779 0.248913
vt 0.256815 0.248913
vt 0.416779 0.462919
vt 0.256815 0.462919
vt 0.612893 0.026828
vt 0.612893 0.030867
vt 0.024917 0.026828
vt 0.024917 0.030867
vt 0.608159 0.030867
vt 0.618515 0.030867
vt 0.618515 0.042191
vt 0.608159 0.042191
vt 0.618515 0.266919
vt 0.608159 0.266919
vt 0.618515 0.278244
vt 0.608159 0.278244
vt 0.618515 0.502972
vt 0.608159 0.502972
vt 0.877751 0.030867
vt 0.877751 0.042191
vt 0.417939 0.030867
vt 0.417939 0.042191
vt 0.620012 0.042191
vt 0.795030 0.042191
vt 0.795030 0.086052
vt 0.620012 0.086052
vt 0.795030 0.089705
vt 0.620012 0.089705
vt 0.795030 0.133566
vt 0.620012 0.133566
vt 0.795030 0.137219
vt 0.620012 0.137219
vt 0.800851 0.042191
vt 0.800851 0.086052
vt 0.618527 0.042191
vt 0.618527 0.086052
vt 0.033245 0.030867
vt 0.207792 0.030867
vt 0.207792 0.074610
vt 0.033245 0.074610
vt 0.207792 0.078253
vt 0.033245 0.078253
vt 0.207792 0.121996
vt 0.033245 0.121996
vt 0.207792 0.125639
vt 0.033245 0.125639
vt 0.206750 0.030867
vt 0.206750 0.074610
vt 0.024917 0.030867
vt 0.024917 0.074610
vn 0.000000 0.000000 1.000000
vn 0.000000 0.000000 1.000000
vn 0.000000 0.000000 1.000000
vn 0.000000 0.000000 1.000000
vn 0.000000 1.000000 0.000000
vn 0.000000 1.000000 0.000000
vn 0.000000 1.000000 0.000000
vn 0.000000 1.000000 0.000000
vn 0.000000 0.000000 -1.000000
vn 0.000000 0.000000 -1.000000
vn 0.000000 0.000000 -1.000000
vn 0.000000 0.000000 -1.000000
vn 0.000000 -1.000000 0.000000
vn 0.000000 -1.000000 0.000000
vn 0.000000 -1.000000 0.000000
vn 0.000000 -1.000000 0.000000
vn 1.000000 0.000000 0.000000
vn 1.000000 0.000000 0.000000
vn 1.000000 0.000000 0.000000
vn 1.000000 0.000000 0.000000
vn -1.000000 0.000000 0.000000
vn -1.000000 0.000000 0.000000
vn -1.000000 0.000000 0.000000
vn -1.000000 0.000000 0.000000
vn 0.000000 0.000000 1.000000
vn 0.000000 0.000000 1.000000
vn 0.000000 0.000000 1.000000
vn 0.000000 0.000000 1.000000
vn 0.000000 1.000000 0.000000
vn 0.000000 1.000000 0.000000
vn 0.000000 1.000000 0.000000
vn 0.000000 1.000000 0.000000
vn 0.000000 0.000000 -1.000000
vn 0.000000 0.000000 -1.000000
vn 0.000000 0.000000 -1.000000
vn 0.000000 0.000000 -1.000000
vn 0.000000 -1.000000 0.000000
vn 0.000000 -1.000000 0.000000
vn 0.000000 -1.000000 0.000000
vn 0.000000 -1.000000 0.000000
vn 1.000000 0.000000 0.000000
vn 1.000000 0.000000 0.000000
vn 1.000000 0.000000 0.000000
vn 1.000000 0.000000 0.000000
vn -1.000000 0.000000 0.000000
vn -1.000000 0.000000 0.000000
vn -1.000000 0.000000 0.000000
vn -1.000000 0.000000 0.000000
vn 0.000000 0.000000 1.000000
vn 0.000000 0.000000 1.000000
vn 0.000000 0.000000 1.000000
vn 0.000000 0.000000 1.000000
vn 0.000000 1.000000 0.000000
vn 0.000000 1.000000 0.000000
vn 0.000000 1.000000 0.000000
vn 0.000000 1.000000 0.000000
vn 0.000000 0.000000 -1.000000
vn 0.000000 0.000000 -1.000000
vn 0.000000 0.000000 -1.000000
vn 0.000000 0.000000 -1.000000
vn 0.000000 -1.000000 0.000000
vn 0.000000 -1.000000 0.000000
vn 0.000000 -1.000000 0.000000
vn 0.000000 -1.000000 0.000000
vn 1.000000 0.000000 0.000000
vn 1.000000 0.000000 0.000000
vn 1.000000 0.000000 0.000000
vn 1.000000 0.000000 0.000000
vn -1.000000 0.000000 0.000000
vn -1.000000 0.000000 0.000000
vn -1.000000 0.000000 0.000000
vn -1.000000 0.000000 0.000000
vn 0.000000 0.000000 1.000000
vn 0.000000 0.000000 1.000000
vn 0.000000 0.000000 1.000000
vn 0.000000 0.000000 1.000000
vn 0.000000 1.000000 0.000000
vn 0.000000 1.000000 0.000000
vn 0.000000 1.000000 0.000000
vn 0.000000 1.000000 0.000000
vn 0.000000 0.000000 -1.000000
vn 0.000000 0.000000 -1.000000
vn 0.000000 0.000000 -1.000000
vn 0.000000 0.000000 -1.000000
vn 0.000000 -1.000000 0.000000
vn 0.000000 -1.000000 0.000000
vn 0.000000 -1.000000 0.000000
vn 0.000000 -1.000000 0.000000
vn 1.000000 0.000000 0.000000
vn 1.000000 0.000000 0.000000
vn 1.000000 0.000000 0.000000
vn 1.000000 0.000000 0.000000
vn -1.000000 0.000000 0.000000
vn -1.000000 0.000000 0.000000
vn -1.000000 0.000000 0.000000
vn -1.000000 0.000000 0.000000
vn 0.000000 0.000000 1.000000
vn 0.000000 0.000000 1.000000
vn 0.000000 0.000000 1.000000
vn 0.000000 0.000000 1.000000
vn 0.000000 1.000000 0.000000
vn 0.000000 1.000000 0.000000
vn 0.000000 1.000000 0.000000
vn 0.000000 1.000000 0.000000
vn 0.000000 0.000000 -1.000000
vn 0.000000 0.000000 -1.000000
vn 0.000000 0.000000 -1.000000
vn 0.000000 0.000000 -1.000000
vn 0.000000 -1.000000 0.000000
vn 0.000000 -1.000000 0.000000
vn 0.000000 -1.000000 0.000000
vn 0.000000 -1.000000 0.000000
vn 1.000000 0.000000 0.000000
vn 1.000000 0.000000 0.000000
vn 1.000000 0.000000 0.000000
vn 1.000000 0.000000 0.000000
vn -1.000000 0.000000 0.000000
vn -1.000000 0.000000 0.000000
vn -1.000000 0.000000 0.000000
vn -1.000000 0.000000 0.000000
vn 0.000000 0.000000 1.000000
vn 0.000000 0.000000 1.000000
vn 0.000000 0.000000 1.000000
vn 0.000000 0.000000 1.000000
vn 0.000000 1.000000 0.000000
vn 0.000000 1.000000 0.000000
vn 0.000000 1.000000 0.000000
vn 0.000000 1.000000 0.000000
vn 0.000000 0.000000 -1.000000
vn 0.000000 0.000000 -1.000000
vn 0.000000 0.000000 -1.000000
vn 0.000000 0.000000 -1.000000
vn 0.000000 -1.000000 0.000000
vn 0.000000 -1.000000 0.000000
vn 0.000000 -1.000000 0.000000
vn 0.000000 -1.000000 0.000000
vn 1.000000 0.000000 0.000000
vn 1.000000 0.000000 0.000000
vn 1.000000 0.000000 0.000000
vn 1.000000 0.000000 0.000000
vn -1.000000 0.000000 0.000000
vn -1.000000 0.000000 0.000000
vn -1.000000 0.000000 0.000000
vn -1.000000 0.000000 0.000000
vn 0.000000 0.000000 1.000000
vn 0.000000 0.000000 1.000000
vn 0.000000 0.000000 1.000000
vn 0.000000 0.000000 1.000000
vn 0.000000 1.000000 0.000000
vn 0.000000 1.000000 0.000000
vn 0.000000 1.000000 0.000000
vn 0.000000 1.000000 0.000000
vn 0.000000 0.000000 -1.000000
vn 0.000000 0.000000 -1.000000
vn 0.000000 0.000000 -1.000000
vn 0.000000 0.000000 -1.000000
vn 0.000000 -1.000000 0.000000
vn 0.000000 -1.000000 0.000000
vn 0.000000 -1.000000 0.000000
vn 0.000000 -1.000000 0.000000
vn 1.000000 0.000000 0.000000
vn 1.000000 0.000000 0.000000
vn 1.000000 0.000000 0.000000
vn 1.000000 0.000000 0.000000
vn -1.000000 0.000000 0.000000
vn -1.000000 0.000000 0.000000
vn -1.000000 0.000000 0.000000
vn -1.000000 0.000000 0.000000
s off
g pCube9
usemtl initialShadingGroup
f 1/1/1 2/2/2 4/4/3 3/3/4
f 3/3/5 4/4/6 6/6/7 5/5/8
f 5/5/9 6/6/10 8/8/11 7/7/12
f 7/7/13 8/8/14 2/10/15 1/9/16
f 2/2/17 8/11/18 6/12/19 4/4/20
f 7/13/21 1/1/22 3/3/23 5/14/24
f 9/15/25 10/16/26 12/17/27 11/18/28
f 11/18/29 12/17/30 14/19/31 13/20/32
f 13/20/33 14/19/34 16/21/35 15/22/36
f 15/22/37 16/21/38 10/23/39 9/24/40
f 10/16/41 16/25/42 14/26/43 12/17/44
f 15/27/45 9/15/46 11/18/47 13/28/48
f 17/29/49 18/30/50 20/31/51 19/32/52
f 19/32/53 20/31/54 22/33/55 21/34/56
f 21/34/57 22/33/58 24/35/59 23/36/60
f 23/36/61 24/35/62 18/37/63 17/38/64
f 18/30/65 24/39/66 22/40/67 20/31/68
f 23/41/69 17/29/70 19/32/71 21/42/72
f 25/43/73 26/44/74 28/45/75 27/46/76
f 27/46/77 28/45/78 30/47/79 29/48/80
f 29/48/81 30/47/82 32/49/83 31/50/84
f 31/50/85 32/49/86 26/51/87 25/52/88
f 26/44/89 32/53/90 30/54/91 28/45/92
f 31/55/93 25/43/94 27/46/95 29/56/96
f 33/57/97 34/58/98 36/59/99 35/60/100
f 35/60/101 36/59/102 38/61/103 37/62/104
f 37/62/105 38/61/106 40/63/107 39/64/108
f 39/64/109 40/63/110 34/65/111 33/66/112
f 34/58/113 40/67/114 38/68/115 36/59/116
f 39/69/117 33/57/118 35/60/119 37/70/120
f 41/71/121 42/72/122 44/73/123 43/74/124
f 43/74/125 44/73/126 46/75/127 45/76/128
f 45/76/129 46/75/130 48/77/131 47/78/132
f 47/78/133 48/77/134 42/79/135 41/80/136
f 42/72/137 48/81/138 46/82/139 44/73/140
f 47/83/141 41/71/142 43/74/143 45/84/144
f 49/85/145 50/86/146 52/87/147 51/88/148
f 51/88/149 52/87/150 54/89/151 53/90/152
f 53/90/153 54/89/154 56/91/155 55/92/156
f 55/92/157 56/91/158 50/93/159 49/94/160
f 50/86/161 56/95/162 54/96/163 52/87/164
f 55/97/165 49/85/166 51/88/167 53/98/168
