# This file uses centimeters as units for non-parametric coordinates.

mtllib chair.mtl
g default
v -0.053435 0.206725 0.049864
v 0.053435 0.206725 0.049864
v -0.306058 4.061034 0.058718
v -0.267108 4.117337 0.058718
v -0.306058 4.061034 -0.058718
v -0.267108 4.117337 -0.058718
v -0.053435 0.206725 -0.049864
v 0.053435 0.206725 -0.049864
v 0.199485 2.287829 0.144869
v 0.373681 2.344136 0.144869
v 0.373681 2.344136 -0.144869
v 0.199485 2.287829 -0.144869
v 0.172906 2.069123 0.134885
v 0.382992 1.895621 0.134885
v 0.382992 1.895621 -0.134885
v 0.172906 2.069123 -0.134885
v 1.945869 2.268838 0.070310
v 1.945869 2.268838 -0.070310
v 1.958246 2.496955 -0.075514
v 1.958246 2.496955 0.075514
v 2.031832 2.212744 0.070310
v 2.031832 2.212744 -0.070310
v 2.127781 2.471581 -0.075514
v 2.127781 2.471581 0.075514
v 2.125399 2.125796 0.070310
v 2.125399 2.125796 -0.070310
v 2.275999 2.384625 -0.075514
v 2.275999 2.384625 0.075514
v 2.204773 2.020517 0.070310
v 2.204773 2.020517 -0.070310
v 2.393356 2.246137 -0.075514
v 2.393356 2.246137 0.075514
v 2.242854 1.950197 0.070310
v 2.242854 1.950197 -0.070310
v 2.485576 2.075144 -0.075514
v 2.485576 2.075144 0.075514
v 2.302636 1.795943 0.070310
v 2.302636 1.795943 -0.070310
v 2.536842 1.843058 -0.075514
v 2.536842 1.843058 0.075514
v 2.475381 0.158354 0.038591
v 2.475381 0.158354 -0.038591
v 2.605268 0.159945 -0.041447
v 2.605268 0.159945 0.041447
v -0.001061 3.346504 -0.051618
v -0.051448 3.487217 -0.051618
v -0.052181 3.328199 -0.051618
v -0.102568 3.468912 -0.051618
v -0.052181 3.328199 -1.692970
v -0.102568 3.468912 -1.692970
v -0.001061 3.346504 -1.692970
v -0.051448 3.487217 -1.692970
v 0.352368 2.158413 -0.051618
v 1.999403 2.372365 -0.051618
v 0.405507 2.279845 -0.051618
v 1.986428 2.447140 -0.051618
v 0.405507 2.279845 -1.692970
v 1.986428 2.447140 -1.692970
v 0.352368 2.158413 -1.692970
v 1.999403 2.372365 -1.692970
v 2.135828 2.312901 -1.692970
v 2.135828 2.312901 -0.051618
v 2.122209 2.409838 -1.692970
v 2.122209 2.409838 -0.051618
v 2.289441 2.201582 -1.692970
v 2.289441 2.201582 -0.051618
v 2.275821 2.298519 -1.692970
v 2.275821 2.298519 -0.051618
v 0.285985 2.210070 -1.692970
v 0.285985 2.210070 -0.051618
v 0.279400 2.307737 -0.051618
v 0.279400 2.307737 -1.692970
v -0.067864 3.533059 -0.051618
v -0.156282 3.779977 -0.051618
v -0.118983 3.514754 -0.051618
v -0.207401 3.761672 -0.051618
v -0.118983 3.514754 -1.692970
v -0.207401 3.761672 -1.692970
v -0.067864 3.533059 -1.692970
v -0.156282 3.779977 -1.692970
v -0.053435 0.206725 -1.685092
v 0.053435 0.206725 -1.685092
v -0.306058 4.061034 -1.676239
v -0.267108 4.117337 -1.676239
v -0.306058 4.061034 -1.793674
v -0.267108 4.117337 -1.793674
v -0.053435 0.206725 -1.784820
v 0.053435 0.206725 -1.784820
v 0.199485 2.287829 -1.590087
v 0.373681 2.344136 -1.590087
v 0.373681 2.344136 -1.879825
v 0.199485 2.287829 -1.879825
v 0.172906 2.069123 -1.600071
v 0.382992 1.895621 -1.600071
v 0.382992 1.895621 -1.869841
v 0.172906 2.069123 -1.869841
v 1.945869 2.268838 -1.664646
v 1.945869 2.268838 -1.805266
v 1.958246 2.496955 -1.810470
v 1.958246 2.496955 -1.659442
v 2.031832 2.212744 -1.664646
v 2.031832 2.212744 -1.805266
v 2.127781 2.471581 -1.810470
v 2.127781 2.471581 -1.659442
v 2.125399 2.125796 -1.664646
v 2.125399 2.125796 -1.805266
v 2.275999 2.384625 -1.810470
v 2.275999 2.384625 -1.659442
v 2.204773 2.020517 -1.664646
v 2.204773 2.020517 -1.805266
v 2.393356 2.246137 -1.810470
v 2.393356 2.246137 -1.659442
v 2.242854 1.950197 -1.664646
v 2.242854 1.950197 -1.805266
v 2.485576 2.075144 -1.810470
v 2.485576 2.075144 -1.659442
v 2.302636 1.795943 -1.664646
v 2.302636 1.795943 -1.805266
v 2.536842 1.843058 -1.810470
v 2.536842 1.843058 -1.659442
v 2.475381 0.158354 -1.696365
v 2.475381 0.158354 -1.773547
v 2.605268 0.159945 -1.776403
v 2.605268 0.159945 -1.693509
vt 0.224017 0.027230
vt 0.236959 0.024574
vt 0.387671 0.497821
vt 0.395803 0.499723
vt 0.395663 0.514649
vt 0.400227 0.507687
vt 0.543537 0.982574
vt 0.555925 0.977891
vt 0.545929 0.993613
vt 0.558136 0.991117
vt 0.248165 0.019378
vt 0.410259 0.496591
vt 0.211961 0.029709
vt 0.373596 0.501913
vt 0.303114 0.284457
vt 0.324531 0.282626
vt 0.497514 0.719044
vt 0.400125 0.248299
vt 0.269255 0.295110
vt 0.477172 0.728667
vt 0.296124 0.252684
vt 0.317784 0.222957
vt 0.513957 0.767138
vt 0.350681 0.205097
vt 0.263659 0.261882
vt 0.481795 0.757078
vt 0.349253 0.239091
vt 0.351563 0.238310
vt 0.360055 0.264215
vt 0.351627 0.255749
vt 0.350237 0.238881
vt 0.350627 0.238784
vt 0.354945 0.255079
vt 0.349826 0.239238
vt 0.350348 0.238903
vt 0.350388 0.238906
vt 0.350220 0.239039
vt 0.350178 0.239020
vt 0.350337 0.238927
vt 0.350335 0.238932
vt 0.350279 0.238972
vt 0.350285 0.238959
vt 0.350329 0.238933
vt 0.350327 0.238936
vt 0.350308 0.238948
vt 0.350314 0.238943
vt 0.350326 0.238936
vt 0.350324 0.238937
vt 0.350319 0.238941
vt 0.350321 0.238939
vt 0.350323 0.238938
vt 0.350323 0.238938
vt 0.350323 0.238938
vt 0.350323 0.238938
vt 0.809661 0.203038
vt 0.823315 0.203884
vt 0.823008 0.208844
vt 0.809354 0.207998
vt 0.813714 0.358789
vt 0.800059 0.357943
vt 0.813406 0.363750
vt 0.799752 0.362903
vt 0.804112 0.513695
vt 0.790457 0.512849
vt 0.973260 0.213178
vt 0.972953 0.218138
vt 0.659716 0.193743
vt 0.659409 0.198704
vt 0.450877 0.040056
vt 0.619272 0.034906
vt 0.621898 0.044583
vt 0.460900 0.055123
vt 0.632978 0.210065
vt 0.472348 0.221120
vt 0.634012 0.217663
vt 0.466543 0.233223
vt 0.649553 0.382980
vt 0.482143 0.398687
vt 0.639041 0.035733
vt 0.639363 0.036602
vt 0.636825 0.039961
vt 0.639302 0.036461
vt 0.309885 0.120827
vt 0.450978 0.045646
vt 0.453032 0.051592
vt 0.315260 0.128173
vt 0.656301 0.019378
vt 0.647049 0.026714
vt 0.630249 0.030377
vt 0.653931 0.037277
vt 0.639323 0.039598
vt 0.636363 0.040415
vt 0.304409 0.115119
vt 0.317513 0.140428
vt 0.654179 0.193554
vt 0.654821 0.169557
vt 0.659789 0.169690
vt 0.659148 0.193687
vt 0.809968 0.173705
vt 0.809327 0.197702
vt 0.814937 0.173838
vt 0.814295 0.197835
vt 0.965116 0.177853
vt 0.964474 0.201850
vt 0.658836 0.019378
vt 0.663804 0.019511
vt 0.650164 0.343734
vt 0.655132 0.343867
vt 0.148850 0.270579
vt 0.169606 0.264993
vt 0.278113 0.466082
vt 0.269773 0.465647
vt 0.283874 0.473140
vt 0.280612 0.480798
vt 0.416973 0.663983
vt 0.398651 0.677049
vt 0.508831 0.915237
vt 0.520197 0.908439
vt 0.524710 0.921066
vt 0.513136 0.925680
vt 0.237946 0.217850
vt 0.291788 0.460445
vt 0.117405 0.287046
vt 0.256643 0.472162
vt 0.136356 0.240541
vt 0.152423 0.207455
vt 0.187274 0.217435
vt 0.187274 0.217435
vt 0.187274 0.217435
vt 0.187274 0.217435
vt 0.441654 0.708416
vt 0.408221 0.704196
vt 0.106026 0.255330
vt 0.025551 0.031373
vt 0.037820 0.026471
vt 0.047931 0.019378
vt 0.181647 0.184063
vt 0.014122 0.035943
vt 0.188383 0.216598
vt 0.186248 0.217775
vt 0.201319 0.240596
vt 0.191528 0.233751
vt 0.187546 0.217230
vt 0.187179 0.217394
vt 0.194675 0.232505
vt 0.186837 0.217818
vt 0.187332 0.217392
vt 0.187293 0.217396
vt 0.187190 0.217553
vt 0.187146 0.217541
vt 0.187284 0.217428
vt 0.187285 0.217422
vt 0.187237 0.217476
vt 0.187240 0.217462
vt 0.187277 0.217433
vt 0.187279 0.217429
vt 0.187261 0.217448
vt 0.187266 0.217441
vt 0.187275 0.217434
vt 0.187276 0.217433
vt 0.187270 0.217438
vt 0.187272 0.217436
vn -0.018367 0.021850 0.999593
vn 0.024921 -0.006297 0.999670
vn -0.021900 0.041453 0.998900
vn -0.021900 0.041453 0.998900
vn -0.822388 0.568928 0.000000
vn -0.822388 0.568928 0.000000
vn -0.822388 0.568928 0.000000
vn -0.822388 0.568928 0.000000
vn -0.021900 0.041453 -0.998900
vn -0.021900 0.041453 -0.998900
vn 0.024921 -0.006296 -0.999670
vn -0.018367 0.021850 -0.999593
vn 0.000000 -1.000000 0.000000
vn 0.000000 -1.000000 0.000000
vn 0.000000 -1.000000 0.000000
vn 0.000000 -1.000000 0.000000
vn 0.940475 0.339863 0.000000
vn 0.940475 0.339863 0.000000
vn 0.940475 0.339863 0.000000
vn 0.940475 0.339863 0.000000
vn -0.975374 -0.220557 0.000000
vn -0.975374 -0.220557 0.000000
vn -0.961679 -0.274176 0.000000
vn -0.961679 -0.274176 0.000000
vn -0.019430 -0.039582 0.999027
vn 0.012569 -0.032523 0.999392
vn 0.012250 -0.999925 0.000000
vn 0.012250 -0.999925 0.000000
vn 0.012250 -0.999925 0.000000
vn 0.012250 -0.999925 0.000000
vn 0.012569 -0.032523 -0.999392
vn -0.019430 -0.039582 -0.999027
vn -0.992696 0.120644 0.000000
vn -0.992696 0.120644 0.000000
vn -0.024111 -0.044047 0.998738
vn -0.024111 -0.044047 0.998738
vn 0.981489 -0.191520 0.000000
vn 0.981489 -0.191520 0.000000
vn 0.981489 -0.191520 0.000000
vn 0.981489 -0.191520 0.000000
vn -0.024111 -0.044047 -0.998738
vn -0.024111 -0.044047 -0.998738
vn -0.992696 0.120644 0.000000
vn -0.992696 0.120644 0.000000
vn 0.232271 -0.972651 0.000000
vn 0.232271 -0.972651 0.000000
vn 0.232271 -0.972651 0.000000
vn 0.232271 -0.972651 0.000000
vn 0.043070 -0.022466 -0.998819
vn 0.042814 -0.022453 -0.998831
vn -0.095997 0.995382 0.000000
vn -0.095997 0.995382 0.000000
vn -0.095997 0.995382 0.000000
vn -0.095997 0.995382 0.000000
vn 0.042814 -0.022453 0.998831
vn 0.043070 -0.022466 0.998819
vn -0.546477 -0.837474 0.000000
vn -0.546477 -0.837474 0.000000
vn -0.623148 -0.782104 0.000000
vn -0.623148 -0.782104 0.000000
vn -0.008845 -0.017150 -0.999814
vn -0.009217 -0.016729 -0.999818
vn 0.148021 0.988984 0.000000
vn 0.148021 0.988984 0.000000
vn 0.333301 0.942821 0.000000
vn 0.333301 0.942821 0.000000
vn -0.009217 -0.016729 0.999818
vn -0.008845 -0.017150 0.999814
vn -0.743417 -0.668828 0.000000
vn -0.743417 -0.668828 0.000000
vn -0.012347 -0.013402 -0.999834
vn -0.012885 -0.012866 -0.999834
vn 0.647157 0.762357 0.000000
vn 0.647157 0.762357 0.000000
vn -0.012885 -0.012866 0.999834
vn -0.012347 -0.013402 0.999834
vn -0.831200 -0.555974 0.000000
vn -0.831200 -0.555974 0.000000
vn -0.015172 -0.010609 -0.999829
vn -0.015637 -0.010157 -0.999826
vn 0.828008 0.560716 0.000000
vn 0.828008 0.560716 0.000000
vn -0.015637 -0.010157 0.999826
vn -0.015172 -0.010609 0.999829
vn -0.916738 -0.399489 0.000000
vn -0.916738 -0.399489 0.000000
vn -0.018373 -0.007252 -0.999805
vn -0.018535 -0.007070 -0.999803
vn 0.942090 0.335361 0.000000
vn 0.942090 0.335361 0.000000
vn -0.018535 -0.007070 0.999803
vn -0.018373 -0.007252 0.999805
vn -0.990824 -0.135162 0.000000
vn -0.990824 -0.135162 0.000000
vn -0.019368 -0.018803 -0.999636
vn -0.019365 -0.018900 -0.999634
vn 0.997683 0.068039 0.000000
vn 0.997683 0.068039 0.000000
vn -0.019365 -0.018900 0.999634
vn -0.019368 -0.018803 0.999636
vn -0.994482 -0.104905 0.000000
vn -0.994482 -0.104905 0.000000
vn -0.019294 -0.021204 -0.999589
vn -0.019294 -0.021204 -0.999589
vn 0.999175 0.040620 0.000000
vn 0.999175 0.040620 0.000000
vn -0.019294 -0.021204 0.999589
vn -0.019294 -0.021204 0.999589
vn -0.000000 0.000000 1.000000
vn -0.000000 0.000000 1.000000
vn -0.000000 0.000000 1.000000
vn -0.000000 0.000000 1.000000
vn -0.941460 -0.337125 0.000000
vn -0.941460 -0.337125 0.000000
vn -0.941460 -0.337125 0.000000
vn -0.941460 -0.337125 0.000000
vn -0.000001 0.000000 -1.000000
vn -0.000001 0.000000 -1.000000
vn -0.000001 0.000000 -1.000000
vn -0.000001 0.000000 -1.000000
vn 0.941460 0.337125 0.000000
vn 0.941460 0.337125 0.000000
vn 0.941460 0.337125 0.000000
vn 0.941460 0.337125 0.000000
vn -0.337124 0.941460 0.000000
vn -0.337124 0.941460 0.000000
vn -0.337124 0.941460 0.000000
vn -0.337124 0.941460 0.000000
vn 0.337124 -0.941460 0.000000
vn 0.337124 -0.941460 0.000000
vn 0.337124 -0.941460 0.000000
vn 0.337124 -0.941460 0.000000
vn -0.000000 0.000000 1.000000
vn -0.000000 0.000000 1.000000
vn -0.000000 0.000000 1.000000
vn -0.000000 0.000000 1.000000
vn -0.105234 0.994448 0.000000
vn -0.105234 0.994448 0.000000
vn -0.105234 0.994448 0.000000
vn -0.105234 0.994448 0.000000
vn -0.000000 0.000000 -1.000000
vn -0.000000 0.000000 -1.000000
vn -0.000000 0.000000 -1.000000
vn -0.000000 0.000000 -1.000000
vn 0.128819 -0.991668 0.000000
vn 0.128819 -0.991668 0.000000
vn 0.128819 -0.991668 0.000000
vn 0.128819 -0.991668 0.000000
vn 0.990274 0.139134 0.000000
vn 0.990274 0.139134 0.000000
vn 0.990274 0.139134 0.000000
vn 0.990274 0.139134 0.000000
vn -0.997735 -0.067269 0.000000
vn -0.997735 -0.067269 0.000000
vn -0.997735 -0.067269 0.000000
vn -0.997735 -0.067269 0.000000
vn -0.399564 -0.916705 0.000000
vn -0.399564 -0.916705 0.000000
vn -0.507399 -0.861711 0.000000
vn -0.507399 -0.861711 0.000000
vn 0.000000 0.000000 -1.000000
vn 0.000001 0.000000 -1.000000
vn 0.264912 0.964273 0.000000
vn 0.264912 0.964273 0.000000
vn 0.456839 0.889549 0.000000
vn 0.456839 0.889549 0.000000
vn 0.000000 0.000000 1.000000
vn -0.000000 0.000000 1.000000
vn -0.586793 -0.809737 0.000000
vn -0.586793 -0.809737 0.000000
vn 0.000001 0.000000 -1.000000
vn 0.000001 0.000000 -1.000000
vn 0.586794 0.809737 0.000000
vn 0.586794 0.809737 0.000000
vn 0.000000 0.000000 1.000000
vn 0.000000 0.000000 1.000000
vn -0.614131 -0.789204 0.000000
vn -0.614131 -0.789204 0.000000
vn -0.614131 -0.789204 0.000000
vn -0.614131 -0.789204 0.000000
vn -0.000000 0.000000 1.000000
vn -0.000000 0.000000 1.000000
vn 0.215955 0.976403 0.000000
vn 0.215955 0.976403 0.000000
vn 0.215955 0.976403 0.000000
vn 0.215955 0.976403 0.000000
vn 0.000001 0.000000 -1.000000
vn 0.000001 0.000000 -1.000000
vn -0.000000 0.000000 1.000000
vn -0.000000 0.000000 1.000000
vn -0.000000 0.000000 1.000000
vn -0.000000 0.000000 1.000000
vn -0.941460 -0.337124 0.000000
vn -0.941460 -0.337124 0.000000
vn -0.941460 -0.337124 0.000000
vn -0.941460 -0.337124 0.000000
vn -0.000001 0.000000 -1.000000
vn -0.000001 0.000000 -1.000000
vn -0.000001 0.000000 -1.000000
vn -0.000001 0.000000 -1.000000
vn 0.941460 0.337124 0.000000
vn 0.941460 0.337124 0.000000
vn 0.941460 0.337124 0.000000
vn 0.941460 0.337124 0.000000
vn -0.337127 0.941459 0.000000
vn -0.337127 0.941459 0.000000
vn -0.337127 0.941459 0.000000
vn -0.337127 0.941459 0.000000
vn 0.337128 -0.941459 0.000000
vn 0.337128 -0.941459 0.000000
vn 0.337128 -0.941459 0.000000
vn 0.337128 -0.941459 0.000000
vn -0.018367 0.021850 0.999593
vn 0.024921 -0.006296 0.999670
vn -0.021900 0.041453 0.998901
vn -0.021900 0.041453 0.998901
vn -0.822388 0.568928 0.000000
vn -0.822388 0.568928 0.000000
vn -0.822388 0.568928 0.000000
vn -0.822388 0.568928 0.000000
vn -0.021900 0.041453 -0.998901
vn -0.021900 0.041453 -0.998900
vn 0.024921 -0.006296 -0.999670
vn -0.018367 0.021850 -0.999593
vn 0.000000 -1.000000 0.000000
vn 0.000000 -1.000000 0.000000
vn 0.000000 -1.000000 0.000000
vn 0.000000 -1.000000 0.000000
vn 0.940475 0.339863 0.000000
vn 0.940475 0.339863 0.000000
vn 0.940475 0.339863 0.000000
vn 0.940475 0.339863 0.000000
vn -0.975374 -0.220557 0.000000
vn -0.975374 -0.220557 0.000000
vn -0.961679 -0.274176 0.000000
vn -0.961679 -0.274176 0.000000
vn -0.019431 -0.039582 0.999027
vn 0.012569 -0.032523 0.999392
vn 0.012250 -0.999925 0.000000
vn 0.012250 -0.999925 0.000000
vn 0.012250 -0.999925 0.000000
vn 0.012250 -0.999925 0.000000
vn 0.012569 -0.032523 -0.999392
vn -0.019431 -0.039582 -0.999027
vn -0.992696 0.120644 0.000000
vn -0.992696 0.120644 0.000000
vn -0.024112 -0.044047 0.998738
vn -0.024112 -0.044047 0.998738
vn 0.981489 -0.191520 0.000000
vn 0.981489 -0.191520 0.000000
vn 0.981489 -0.191520 0.000000
vn 0.981489 -0.191520 0.000000
vn -0.024112 -0.044047 -0.998738
vn -0.024112 -0.044047 -0.998738
vn -0.992696 0.120644 0.000000
vn -0.992696 0.120644 0.000000
vn 0.232271 -0.972651 0.000000
vn 0.232271 -0.972651 0.000000
vn 0.232271 -0.972651 0.000000
vn 0.232271 -0.972651 0.000000
vn 0.043070 -0.022466 -0.998819
vn 0.042814 -0.022453 -0.998831
vn -0.095997 0.995382 0.000000
vn -0.095997 0.995382 0.000000
vn -0.095997 0.995382 0.000000
vn -0.095997 0.995382 0.000000
vn 0.042814 -0.022453 0.998831
vn 0.043070 -0.022466 0.998819
vn -0.546476 -0.837475 0.000000
vn -0.546476 -0.837475 0.000000
vn -0.623148 -0.782104 0.000000
vn -0.623148 -0.782104 0.000000
vn -0.008845 -0.017150 -0.999814
vn -0.009217 -0.016729 -0.999818
vn 0.148021 0.988984 0.000000
vn 0.148021 0.988984 0.000000
vn 0.333301 0.942821 0.000000
vn 0.333301 0.942821 0.000000
vn -0.009217 -0.016729 0.999818
vn -0.008845 -0.017150 0.999814
vn -0.743418 -0.668827 0.000000
vn -0.743418 -0.668827 0.000000
vn -0.012347 -0.013402 -0.999834
vn -0.012885 -0.012866 -0.999834
vn 0.647157 0.762357 0.000000
vn 0.647157 0.762357 0.000000
vn -0.012885 -0.012866 0.999834
vn -0.012347 -0.013402 0.999834
vn -0.831199 -0.555975 0.000000
vn -0.831199 -0.555975 0.000000
vn -0.015172 -0.010609 -0.999829
vn -0.015637 -0.010157 -0.999826
vn 0.828008 0.560716 0.000000
vn 0.828008 0.560716 0.000000
vn -0.015637 -0.010157 0.999826
vn -0.015172 -0.010609 0.999829
vn -0.916738 -0.399490 0.000000
vn -0.916738 -0.399490 0.000000
vn -0.018374 -0.007252 -0.999805
vn -0.018535 -0.007070 -0.999803
vn 0.942090 0.335361 0.000000
vn 0.942090 0.335361 0.000000
vn -0.018535 -0.007070 0.999803
vn -0.018373 -0.007252 0.999805
vn -0.990824 -0.135162 0.000000
vn -0.990824 -0.135162 0.000000
vn -0.019368 -0.018803 -0.999636
vn -0.019365 -0.018900 -0.999634
vn 0.997683 0.068039 0.000000
vn 0.997683 0.068039 0.000000
vn -0.019365 -0.018900 0.999634
vn -0.019368 -0.018803 0.999636
vn -0.994482 -0.104905 0.000000
vn -0.994482 -0.104905 0.000000
vn -0.019294 -0.021204 -0.999589
vn -0.019294 -0.021204 -0.999589
vn 0.999175 0.040620 0.000000
vn 0.999175 0.040620 0.000000
vn -0.019294 -0.021204 0.999589
vn -0.019294 -0.021204 0.999589
s 1
g chair
usemtl initialShadingGroup
f 9/15/1 10/16/2 4/4/3 3/3/4
s off
f 3/3/5 4/4/6 6/6/7 5/5/8
s 2
f 5/5/9 6/6/10 11/17/11 12/20/12
s off
f 7/7/13 8/8/14 2/10/15 1/9/16
f 10/16/17 11/18/18 6/12/19 4/4/20
s 3
f 12/19/21 9/15/22 3/3/23 5/14/24
s 1
f 13/21/25 14/22/26 10/16/2 9/15/1
s off
f 41/51/27 42/52/28 43/53/29 44/54/30
s 2
f 12/20/12 11/17/11 15/23/31 16/26/32
s 3
f 16/25/33 13/21/34 9/15/22 12/19/21
s 1
f 1/1/35 2/2/36 14/22/26 13/21/25
s off
f 2/2/37 8/11/38 15/24/39 14/22/40
s 2
f 16/26/32 15/23/31 8/8/41 7/7/42
s 3
f 7/13/43 1/1/44 13/21/34 16/25/33
s off
f 14/22/45 15/24/46 18/28/47 17/27/48
s 2
f 15/24/31 11/18/11 19/29/49 18/28/50
s off
f 11/18/51 10/16/52 20/30/53 19/29/54
s 1
f 10/16/2 14/22/26 17/27/55 20/30/56
s 4
f 17/27/57 18/28/58 22/32/59 21/31/60
s 2
f 18/28/50 19/29/49 23/33/61 22/32/62
s 5
f 19/29/63 20/30/64 24/34/65 23/33/66
s 1
f 20/30/56 17/27/55 21/31/67 24/34/68
s 4
f 21/31/60 22/32/59 26/36/69 25/35/70
s 2
f 22/32/62 23/33/61 27/37/71 26/36/72
s 5
f 23/33/66 24/34/65 28/38/73 27/37/74
s 1
f 24/34/68 21/31/67 25/35/75 28/38/76
s 4
f 25/35/70 26/36/69 30/40/77 29/39/78
s 2
f 26/36/72 27/37/71 31/41/79 30/40/80
s 5
f 27/37/74 28/38/73 32/42/81 31/41/82
s 1
f 28/38/76 25/35/75 29/39/83 32/42/84
s 4
f 29/39/78 30/40/77 34/44/85 33/43/86
s 2
f 30/40/80 31/41/79 35/45/87 34/44/88
s 5
f 31/41/82 32/42/81 36/46/89 35/45/90
s 1
f 32/42/84 29/39/83 33/43/91 36/46/92
s 4
f 33/43/86 34/44/85 38/48/93 37/47/94
s 2
f 34/44/88 35/45/87 39/49/95 38/48/96
s 5
f 35/45/90 36/46/89 40/50/97 39/49/98
s 1
f 36/46/92 33/43/91 37/47/99 40/50/100
s 4
f 37/47/94 38/48/93 42/52/101 41/51/102
s 2
f 38/48/96 39/49/95 43/53/103 42/52/104
s 5
f 39/49/98 40/50/97 44/54/105 43/53/106
s 1
f 40/50/100 37/47/99 41/51/107 44/54/108
s off
f 45/55/109 46/56/110 48/57/111 47/58/112
f 47/58/113 48/57/114 50/59/115 49/60/116
f 49/60/117 50/59/118 52/61/119 51/62/120
f 51/62/121 52/61/122 46/63/123 45/64/124
f 46/56/125 52/65/126 50/66/127 48/57/128
f 51/67/129 45/55/130 47/58/131 49/68/132
s 6
f 53/69/133 54/70/134 56/71/135 55/72/136
s off
f 55/72/137 56/71/138 58/73/139 57/74/140
s 7
f 57/74/141 58/73/142 60/75/143 59/76/144
s off
f 59/76/145 60/75/146 54/77/147 53/78/148
f 66/79/149 65/80/150 67/81/151 68/82/152
f 69/83/153 70/84/154 71/85/155 72/86/156
s 8
f 54/70/157 60/87/158 61/88/159 62/89/160
s 7
f 60/87/143 58/90/142 63/91/161 61/88/162
s 9
f 58/90/163 56/71/164 64/92/165 63/91/166
s 6
f 56/71/135 54/70/134 62/89/167 64/92/168
s 8
f 62/89/160 61/88/159 65/80/169 66/79/170
s 7
f 61/88/162 63/91/161 67/81/171 65/80/172
s 9
f 63/91/166 64/92/165 68/82/173 67/81/174
s 6
f 64/92/168 62/89/167 66/79/175 68/82/176
s off
f 59/93/177 53/69/178 70/84/179 69/83/180
s 6
f 53/69/133 55/72/136 71/85/181 70/84/182
s off
f 55/72/183 57/94/184 72/86/185 71/85/186
s 7
f 57/94/141 59/93/144 69/83/187 72/86/188
s off
f 73/95/189 74/96/190 76/97/191 75/98/192
f 75/98/193 76/97/194 78/99/195 77/100/196
f 77/100/197 78/99/198 80/101/199 79/102/200
f 79/102/201 80/101/202 74/103/203 73/104/204
f 74/96/205 80/105/206 78/106/207 76/97/208
f 79/107/209 73/95/210 75/98/211 77/108/212
s 10
f 89/109/213 90/110/214 84/111/215 83/112/216
s off
f 83/112/217 84/111/218 86/113/219 85/114/220
s 11
f 85/114/221 86/113/222 91/115/223 92/116/224
s off
f 87/117/225 88/118/226 82/119/227 81/120/228
f 90/110/229 91/121/230 86/122/231 84/111/232
s 12
f 92/123/233 89/109/234 83/112/235 85/124/236
s 10
f 93/125/237 94/126/238 90/110/214 89/109/213
s off
f 121/127/239 122/128/240 123/129/241 124/130/242
s 11
f 92/116/224 91/115/223 95/131/243 96/132/244
s 12
f 96/133/245 93/125/246 89/109/234 92/123/233
s 10
f 81/134/247 82/135/248 94/126/238 93/125/237
s off
f 82/135/249 88/136/250 95/137/251 94/126/252
s 11
f 96/132/244 95/131/243 88/118/253 87/117/254
s 12
f 87/138/255 81/134/256 93/125/246 96/133/245
s off
f 94/126/257 95/137/258 98/139/259 97/140/260
s 11
f 95/137/243 91/121/223 99/141/261 98/139/262
s off
f 91/121/263 90/110/264 100/142/265 99/141/266
s 10
f 90/110/214 94/126/238 97/140/267 100/142/268
s 13
f 97/140/269 98/139/270 102/143/271 101/144/272
s 11
f 98/139/262 99/141/261 103/145/273 102/143/274
s 14
f 99/141/275 100/142/276 104/146/277 103/145/278
s 10
f 100/142/268 97/140/267 101/144/279 104/146/280
s 13
f 101/144/272 102/143/271 106/147/281 105/148/282
s 11
f 102/143/274 103/145/273 107/149/283 106/147/284
s 14
f 103/145/278 104/146/277 108/150/285 107/149/286
s 10
f 104/146/280 101/144/279 105/148/287 108/150/288
s 13
f 105/148/282 106/147/281 110/151/289 109/152/290
s 11
f 106/147/284 107/149/283 111/153/291 110/151/292
s 14
f 107/149/286 108/150/285 112/154/293 111/153/294
s 10
f 108/150/288 105/148/287 109/152/295 112/154/296
s 13
f 109/152/290 110/151/289 114/155/297 113/156/298
s 11
f 110/151/292 111/153/291 115/157/299 114/155/300
s 14
f 111/153/294 112/154/293 116/158/301 115/157/302
s 10
f 112/154/296 109/152/295 113/156/303 116/158/304
s 13
f 113/156/298 114/155/297 118/159/305 117/160/306
s 11
f 114/155/300 115/157/299 119/161/307 118/159/308
s 14
f 115/157/302 116/158/301 120/162/309 119/161/310
s 10
f 116/158/304 113/156/303 117/160/311 120/162/312
s 13
f 117/160/306 118/159/305 122/128/313 121/127/314
s 11
f 118/159/308 119/161/307 123/129/315 122/128/316
s 14
f 119/161/310 120/162/309 124/130/317 123/129/318
s 10
f 120/162/312 117/160/311 121/127/319 124/130/320
